<?xml version="1.0" encoding="UTF-8" standalone="no"?>
<!-- Created with Inkscape (http://www.inkscape.org/) -->

<svg
   xmlns:dc="http://purl.org/dc/elements/1.1/"
   xmlns:cc="http://creativecommons.org/ns#"
   xmlns:rdf="http://www.w3.org/1999/02/22-rdf-syntax-ns#"
   xmlns:svg="http://www.w3.org/2000/svg"
   xmlns="http://www.w3.org/2000/svg"
   xmlns:sodipodi="http://sodipodi.sourceforge.net/DTD/sodipodi-0.dtd"
   xmlns:inkscape="http://www.inkscape.org/namespaces/inkscape"
   width="30"
   height="30"
   id="svg2"
   version="1.1"
   inkscape:version="0.48.5 r10040"
   sodipodi:docname="frame.svg">
  <defs
     id="defs4" />
  <sodipodi:namedview
     id="base"
     pagecolor="#ffffff"
     bordercolor="#666666"
     borderopacity="1.0"
     inkscape:pageopacity="0.0"
     inkscape:pageshadow="2"
     inkscape:zoom="16.133333"
     inkscape:cx="14.645408"
     inkscape:cy="15.061984"
     inkscape:document-units="px"
     inkscape:current-layer="layer1"
     showgrid="true"
     inkscape:window-width="1311"
     inkscape:window-height="762"
     inkscape:window-x="573"
     inkscape:window-y="207"
     inkscape:window-maximized="0">
    <inkscape:grid
       type="xygrid"
       id="grid2994" />
  </sodipodi:namedview>
  <metadata
     id="metadata7">
    <rdf:RDF>
      <cc:Work
         rdf:about="">
        <dc:format>image/svg+xml</dc:format>
        <dc:type
           rdf:resource="http://purl.org/dc/dcmitype/StillImage" />
        <dc:title />
      </cc:Work>
    </rdf:RDF>
  </metadata>
  <g
     inkscape:label="Layer 1"
     inkscape:groupmode="layer"
     id="layer1"
     transform="translate(0,-1022.3622)">
    <path
       sodipodi:type="arc"
       style="fill:none"
       id="path3004"
       sodipodi:cx="2.2623968"
       sodipodi:cy="2.1384296"
       sodipodi:rx="2.2623968"
       sodipodi:ry="2.2004132"
       d="m 4.5247936,2.1384296 c 0,1.2152547 -1.0129095,2.2004133 -2.2623968,2.2004133 C 1.0129096,4.3388429 0,3.3536843 0,2.1384296 0,0.92317497 1.0129096,-0.06198359 2.2623968,-0.06198359 c 0.960591,0 1.8164557,0.58998077 2.1346609,1.47150469 L 2.2623968,2.1384296 z"
       transform="translate(0,1022.3622)"
       sodipodi:start="0"
       sodipodi:end="5.9455468" />
    <path
       sodipodi:type="arc"
       style="fill:none"
       id="path3006"
       sodipodi:cx="8.8016529"
       sodipodi:cy="21.818182"
       sodipodi:rx="4.7107439"
       sodipodi:ry="3.5330579"
       d="m 13.512397,21.818182 c 0,1.951254 -2.109072,3.533058 -4.7107441,3.533058 -2.601672,0 -4.7107439,-1.581804 -4.7107439,-3.533058 0,-1.951254 2.1090719,-3.533058 4.7107439,-3.533058 2.0001341,0 3.7822091,0.947293 4.4447731,2.362698 l -4.4447731,1.17036 z"
       transform="translate(0,1022.3622)"
       sodipodi:start="0"
       sodipodi:end="5.9455468" />
    <path
       sodipodi:type="arc"
       style="fill:none"
       id="path3008"
       sodipodi:cx="8.0888433"
       sodipodi:cy="10.971074"
       sodipodi:rx="5.0516529"
       sodipodi:ry="5.7024794"
       d="m 13.140496,10.971074 c 0,3.149392 -2.261702,5.702479 -5.0516527,5.702479 -2.7899508,0 -5.0516529,-2.553087 -5.0516529,-5.702479 0,-3.1493923 2.2617021,-5.7024793 5.0516529,-5.7024793 2.1448807,0 4.0559217,1.5289643 4.7664347,3.8134769 L 8.0888433,10.971074 z"
       transform="translate(0,1022.3622)"
       sodipodi:start="0"
       sodipodi:end="5.9455468" />
    <path
       sodipodi:type="arc"
       style="fill:none;stroke:#000000;stroke-width:2;stroke-miterlimit:4;stroke-opacity:1;stroke-dasharray:none"
       id="path3003"
       sodipodi:cx="10"
       sodipodi:cy="10"
       sodipodi:rx="10"
       sodipodi:ry="10"
       d="M 1.1819273e-4,10.048619 A 10,10 0 0 1 10.048332,1.1679983e-4"
       transform="translate(1,1023.3622)"
       sodipodi:start="3.1367307"
       sodipodi:end="4.7172222"
       sodipodi:open="true" />
    <path
       sodipodi:type="arc"
       style="fill:none;stroke:#000000;stroke-width:2;stroke-miterlimit:4;stroke-opacity:1;stroke-dasharray:none"
       id="path3003-8"
       sodipodi:cx="10"
       sodipodi:cy="10"
       sodipodi:rx="10"
       sodipodi:ry="10"
       d="M 1.1819273e-4,10.048619 A 10,10 0 0 1 10.048332,1.1679983e-4"
       transform="matrix(1,0,0,-1,1,1051.3622)"
       sodipodi:start="3.1367307"
       sodipodi:end="4.7172222"
       sodipodi:open="true" />
    <path
       style="fill:none;stroke:#000000;stroke-width:2;stroke-linecap:butt;stroke-linejoin:miter;stroke-opacity:1;stroke-miterlimit:4;stroke-dasharray:none"
       d="m 1,11 0,8 0,0"
       id="path3811"
       inkscape:connector-curvature="0"
       transform="translate(0,1022.3622)" />
    <path
       style="fill:none;stroke:#000000;stroke-width:2;stroke-linecap:butt;stroke-linejoin:miter;stroke-opacity:1;stroke-miterlimit:4;stroke-dasharray:none"
       d="m 11,1 18,0 0,28 -18,0"
       id="path3813"
       inkscape:connector-curvature="0"
       transform="translate(0,1022.3622)" />
  </g>
</svg>
