<?xml version="1.0" encoding="UTF-8" standalone="no"?>
<!-- Created with Inkscape (http://www.inkscape.org/) -->

<svg
   xmlns:dc="http://purl.org/dc/elements/1.1/"
   xmlns:cc="http://creativecommons.org/ns#"
   xmlns:rdf="http://www.w3.org/1999/02/22-rdf-syntax-ns#"
   xmlns:svg="http://www.w3.org/2000/svg"
   xmlns="http://www.w3.org/2000/svg"
   xmlns:xlink="http://www.w3.org/1999/xlink"
   xmlns:sodipodi="http://sodipodi.sourceforge.net/DTD/sodipodi-0.dtd"
   xmlns:inkscape="http://www.inkscape.org/namespaces/inkscape"
   id="svg2"
   sodipodi:version="0.32"
   inkscape:version="0.47 r22583"
   width="132"
   height="132"
   sodipodi:docname="install-logo.svg"
   inkscape:output_extension="org.inkscape.output.svg.inkscape"
   version="1.0"
   sodipodi:modified="true"
   inkscape:export-filename="/usr/local/msegui/MSEProject/Acosys/azinstall/others/image/install-logo.png"
   inkscape:export-xdpi="90"
   inkscape:export-ydpi="90">
  <metadata
     id="metadata7">
    <rdf:RDF>
      <cc:Work
         rdf:about="">
        <dc:format>image/svg+xml</dc:format>
        <dc:type
           rdf:resource="http://purl.org/dc/dcmitype/StillImage" />
        <dc:title></dc:title>
      </cc:Work>
    </rdf:RDF>
  </metadata>
  <defs
     id="defs5">
    <inkscape:perspective
       sodipodi:type="inkscape:persp3d"
       inkscape:vp_x="0 : 74.942055 : 1"
       inkscape:vp_y="0 : 1000 : 0"
       inkscape:vp_z="221.95581 : 74.942055 : 1"
       inkscape:persp3d-origin="110.97791 : 49.96137 : 1"
       id="perspective58" />
    <linearGradient
       id="linearGradient3544">
      <stop
         style="stop-color:#000000;stop-opacity:0.3298969;"
         offset="0"
         id="stop3546" />
      <stop
         style="stop-color:#000000;stop-opacity:0;"
         offset="1"
         id="stop3548" />
    </linearGradient>
    <linearGradient
       id="linearGradient2331">
      <stop
         style="stop-color:#5c6e8e;stop-opacity:0.38144329;"
         offset="0"
         id="stop2333" />
      <stop
         style="stop-color:#000000;stop-opacity:0;"
         offset="1"
         id="stop2335" />
    </linearGradient>
    <radialGradient
       inkscape:collect="always"
       xlink:href="#linearGradient2331"
       id="radialGradient3212"
       cx="307.17395"
       cy="401.55209"
       fx="307.17395"
       fy="401.55209"
       r="49.806377"
       gradientTransform="matrix(1.4451,-8.321556e-6,1.508215e-5,2.619128,-140.2209,-648.6084)"
       gradientUnits="userSpaceOnUse" />
    <radialGradient
       inkscape:collect="always"
       xlink:href="#linearGradient2331"
       id="radialGradient3224"
       gradientUnits="userSpaceOnUse"
       gradientTransform="matrix(1.4451,-8.321556e-6,1.508215e-5,2.619128,-140.2209,-648.6084)"
       cx="307.17395"
       cy="401.55209"
       fx="307.17395"
       fy="401.55209"
       r="49.806377" />
    <linearGradient
       inkscape:collect="always"
       xlink:href="#linearGradient3544"
       id="linearGradient3550"
       x1="311.16995"
       y1="485.34842"
       x2="290.42953"
       y2="607.33539"
       gradientUnits="userSpaceOnUse"
       gradientTransform="matrix(0.537736,0,0,0.275565,229.3133,-686.0783)" />
    <linearGradient
       inkscape:collect="always"
       xlink:href="#linearGradient3544"
       id="linearGradient2191"
       gradientUnits="userSpaceOnUse"
       gradientTransform="matrix(0.537736,0,0,0.275565,229.3133,-686.0783)"
       x1="311.16995"
       y1="485.34842"
       x2="290.42953"
       y2="607.33539" />
    <radialGradient
       inkscape:collect="always"
       xlink:href="#linearGradient2331"
       id="radialGradient2193"
       gradientUnits="userSpaceOnUse"
       gradientTransform="matrix(1.4451,-8.321556e-6,1.508215e-5,2.619128,-140.2209,-648.6084)"
       cx="307.17395"
       cy="401.55209"
       fx="307.17395"
       fy="401.55209"
       r="49.806377" />
    <filter
       id="filter2890"
       inkscape:label="Glow"
       inkscape:menu="Shadows and Glows"
       inkscape:menu-tooltip="Glow of object's own color at the edges"
       color-interpolation-filters="sRGB">
      <feGaussianBlur
         id="feGaussianBlur2892"
         stdDeviation="5"
         result="result91" />
      <feComposite
         id="feComposite2894"
         in2="result91"
         in="SourceGraphic"
         operator="over" />
    </filter>
  </defs>
  <sodipodi:namedview
     inkscape:window-height="752"
     inkscape:window-width="1280"
     inkscape:pageshadow="2"
     inkscape:pageopacity="0.0"
     borderopacity="1.0"
     bordercolor="#666666"
     pagecolor="#ffffff"
     id="base"
     showguides="true"
     inkscape:guide-bbox="true"
     inkscape:zoom="1"
     inkscape:cx="323.51083"
     inkscape:cy="65.55676"
     inkscape:window-x="-4"
     inkscape:window-y="-3"
     inkscape:current-layer="svg2"
     showgrid="false"
     inkscape:window-maximized="1" />
  <g
     id="g4567"
     transform="matrix(0.5100176,0,0,0.5100176,-106.73438,-202.16553)"
     style="fill:#000080;filter:url(#filter2890)">
    <path
       d="m 228.29625,459.58087 c 3.97644,-3.80746 5.01502,3.74419 6.07964,9.29587 4.40602,27.89342 4.38006,56.18851 5.93912,84.31432 0.25352,5.89688 0.18819,3.02859 0.21468,8.60443 l -1.55194,0.12731 c -0.83377,-5.51714 -0.46135,-2.66972 -1.09653,-8.54493 -2.48402,-27.91196 -2.59991,-56.07042 -7.00518,-83.76105 -0.73068,-2.79179 -2.98665,-10.44459 -1.4435,-10.0419 l -1.13629,0.006 z"
       id="path4396"
       style="fill:#000080;fill-opacity:1;fill-rule:nonzero;stroke:none" />
    <path
       d="m 230.99784,464.35994 c 15.99171,3.11022 32.52457,1.59934 48.6971,1.2263 22.10721,0.10542 44.16295,-1.68697 66.25714,-2.11129 2.34593,0.32968 4.31262,-0.54945 6.44233,-1.32039 l -0.003,-1.0078 c -2.15762,-0.79471 -4.13155,-1.70012 -6.51788,-1.32405 -22.10544,0.22237 -44.20833,-0.87263 -66.31282,-0.0294 -16.15397,0.16768 -32.62729,-1.016 -48.58751,1.9633 l 0.0248,2.60333 z"
       id="path4398"
       style="fill:#000080;fill-opacity:1;fill-rule:nonzero;stroke:none" />
    <path
       d="m 351.76812,465.45148 c 2.90503,-0.16597 1.27241,11.90816 0.96938,16.51743 -2.11992,27.31213 1.53126,54.46615 0.97856,81.77057 l -1.05316,0.0966 c -4.95845,-27.05078 -4.66102,-54.54746 -4.60837,-82.00536 0.19659,-5.68121 -0.31415,-15.08049 3.39306,-18.53251 l 0.32053,2.15325 z"
       id="path4400"
       style="fill:#000080;fill-opacity:1;fill-rule:nonzero;stroke:none" />
    <path
       d="m 238.24903,561.78525 c -0.52736,-4.3411 6.41501,-4.14681 10.62753,-4.28963 24.26274,0.0453 48.52963,1.55725 72.73869,3.4954 8.41792,0.82406 16.85279,1.63238 25.18809,3.31313 l -0.0664,1.20706 c -8.44163,0.50483 -16.89822,0.10473 -25.34306,-0.19685 -24.14588,-1.16546 -48.29418,-2.61514 -72.46649,-2.47266 -3.9486,0.0803 -8.32545,0.23551 -9.62378,-1.06319 l -1.0546,0.007 z"
       id="path4402"
       style="fill:#000080;fill-opacity:1;fill-rule:nonzero;stroke:none" />
    <path
       d="m 282.22475,564.1793 c -1.38249,-1.32819 2.39084,-0.72867 2.44931,3.81045 0.54988,6.59976 -0.41157,12.95848 -1.93468,19.34124 l -1.34652,0.0231 c -1.69924,-6.38264 -2.86745,-12.76901 -2.44205,-19.4264 0.27955,-4.34853 3.85426,-10.3848 4.66739,-4.61575 l -1.39345,0.86733 z"
       id="path4406"
       style="fill:#000080;fill-opacity:1;fill-rule:nonzero;stroke:none" />
    <path
       d="m 295.33436,561.7607 c 5.18855,-0.18348 4.89841,6.55237 4.93609,12.00253 -0.14393,2.79473 -1.27228,5.33141 -2.25813,7.90295 l -1.05206,-0.0117 c -0.91301,-2.47916 -1.91768,-4.94886 -2.3621,-7.56786 -0.49492,-4.45137 -1.28127,-8.58108 0.71064,-9.88507 l 0.0256,-2.44081 z"
       id="path4408"
       style="fill:#000080;fill-opacity:1;fill-rule:nonzero;stroke:none" />
    <path
       id="path4416"
       d="m 298.50673,560.92602 c 2.70183,-2.83162 -1.82119,-3.19235 0,0 z m 1.29332,6.49873 c 0.0774,5.40784 7.26257,2.66703 10.4881,4.80772 5.79856,2.11277 11.75161,10.74717 5.91884,15.94741 -10.30219,8.02469 -24.68176,7.38464 -36.92118,5.67554 -6.35121,-0.63987 -13.49501,-4.74928 -15.14336,-10.44325 -3.95598,2.34791 -3.1369,7.71087 0.64825,9.83868 8.93299,6.06105 20.40262,9.60673 31.11831,7.42934 9.55318,-1.95053 22.24157,-5.17741 24.73331,-16.06139 0.14281,-10.54546 -11.34275,-17.33452 -20.84227,-17.19405 z"
       style="fill:#000080;fill-opacity:1;fill-rule:nonzero;stroke:none" />
    <g
       transform="translate(-16,2)"
       id="g4533"
       style="fill:#000080">
      <path
         style="fill:#000080;fill-opacity:1;fill-rule:nonzero;stroke:none"
         id="path4424"
         d="m 378.17206,470.96877 c 6.12018,0.63064 3.91192,14.56552 3.6598,22.80109 -1.63786,33.81437 -0.54211,67.63985 -2.17955,101.44973 -0.24881,5.18997 -0.0904,2.68254 -0.46071,7.5232 l -1.00957,0.0309 c -1.16553,-10.34363 0.29559,4.02258 -0.84336,-7.48456 -3.34935,-33.86762 -3.14091,-67.65855 -1.52359,-101.6496 0.18904,-7.98331 -1.98137,-22.86108 4.56543,-23.36398 l -2.20845,0.69319 z" />
      <path
         style="fill:#000080;fill-opacity:1;fill-rule:nonzero;stroke:none"
         id="path4426"
         d="m 380.26395,474.30989 c -0.14784,-2.97173 4.13002,-2.78223 10.2706,-2.8768 13.03109,0.15894 26.56175,-2.00643 39.24931,1.53251 l -0.005,0.88378 c -12.67207,3.63674 -26.22178,1.61478 -39.26622,1.96051 -6.2121,-0.0586 -10.37938,0.13849 -10.23439,-2.84665 l -0.0141,1.34665 z" />
      <path
         style="fill:#000080;fill-opacity:1;fill-rule:nonzero;stroke:none"
         id="path4430"
         d="m 427.41774,473.59552 c 4.62422,-2.2331 4.16384,4.48559 4.05004,12.71322 -1.68701,31.46293 -4.16155,62.8774 -6.98045,94.25763 -0.28512,5.01062 -0.96874,9.97401 -1.6415,14.94046 l -0.96712,-0.0405 c -0.19795,-5.0051 -0.40792,-10.00822 -0.20851,-15.02042 0.22993,-31.50378 1.33876,-62.9365 4.20348,-94.32757 0.47381,-7.11112 0.096,-12.06451 3.14327,-12.53122 l -1.59921,0.008 z" />
      <path
         style="fill:#000080;fill-opacity:1;fill-rule:nonzero;stroke:none"
         id="path4432"
         d="m 377.82298,598.54717 c 9.98991,-0.70165 20.05459,-0.70539 30.09544,-0.29458 7.39943,0.25643 14.75496,1.10759 22.13513,1.63892 l -0.0193,0.96777 c -7.38996,0.39089 -14.75971,1.07582 -22.15726,1.34911 -10.03887,0.41038 -20.10125,0.40768 -30.08928,-0.29458 l 0.0353,-3.36664 z" />
      <path
         style="fill:#000080;fill-opacity:1;fill-rule:nonzero;stroke:none"
         id="path4436"
         d="m 430.67745,472.852 c -0.65567,-3.3978 3.32088,-4.31106 7.95891,-6.90887 6.50316,-3.26242 13.10394,-6.62919 19.83304,-9.28065 1.04071,-0.13721 2.01573,-0.57829 2.99914,-0.86042 l 0.79777,0.92363 c -0.683,0.93945 -1.1639,2.21117 -2.1646,2.97732 -5.84308,4.36075 -12.40072,7.87471 -18.9186,11.22451 -5.22459,2.56573 -10.01235,6.01701 -12.39947,1.9344 l 1.89381,-0.01 z" />
      <path
         style="fill:#000080;fill-opacity:1;fill-rule:nonzero;stroke:none"
         id="path4438"
         d="m 465.50519,454.77034 c 1.79501,14.70937 -0.17352,29.75249 -0.45201,44.56071 -1.23227,21.91147 -0.37913,43.88198 -1.62756,65.78526 l -1.34647,0.0259 c -1.80709,-21.90973 -1.49355,-43.98577 -0.97987,-65.94044 0.88142,-14.72602 2.0762,-29.46598 2.35604,-44.20643 l 2.04987,-0.22501 z" />
      <path
         style="fill:#000080;fill-opacity:1;fill-rule:nonzero;stroke:none"
         id="path4442"
         d="m 430.8767,592.89633 c 6.15539,-10.03126 15.90009,-17.10097 25.1697,-24.06889 0.91951,-0.68569 1.83902,-1.37137 2.75852,-2.05706 l 0.73524,0.86637 c -0.84398,0.76877 -1.68797,1.53754 -2.53195,2.30631 -8.14692,7.59956 -16.22347,15.37762 -23.32344,23.97464 l -2.80807,-1.02137 z" />
      <path
         style="fill:#000080;fill-opacity:1;fill-rule:nonzero;stroke:none"
         id="path4444"
         d="m 379.3877,471.33647 c 9.36539,-4.70508 19.39026,-8.87311 29.36892,-12.38587 5.21605,-1.66263 2.62468,-0.87217 7.7729,-2.37529 l 0.43217,1.18629 c -4.83409,2.2941 -2.38888,1.13733 -7.33583,3.46993 -9.89687,4.401 -19.98681,9.47985 -30.26373,12.54575 l 0.0256,-2.44081 z" />
      <path
         style="fill:#000080;fill-opacity:1;fill-rule:nonzero;stroke:none"
         id="path4456"
         d="m 459.95519,456.98055 c -0.30861,3.54925 -16.65135,1.03713 -21.96881,1.04708 -7.35726,0.26017 -14.68462,-0.49223 -21.98888,-1.628 l 0.0632,-2.85101 c 7.34997,-0.70251 14.71428,-1.00585 22.06746,-0.0804 7.72669,0.74707 18.65289,-0.91155 24.66292,3.49145 l -2.83594,0.0209 z" />
      <path
         style="fill:#000080;fill-opacity:1;fill-rule:nonzero;stroke:none"
         id="path4458"
         d="m 428.47568,538.98666 c -0.0888,0.10697 -0.17753,0.21394 -0.26629,0.32091 l -1.13064,-0.11326 c -0.0616,-0.14767 -0.12327,-0.29534 -0.1849,-0.443 l 1.58183,0.23535 z" />
      <path
         style="fill:#000080;fill-opacity:1;fill-rule:nonzero;stroke:none"
         id="path4462"
         d="m 438.62163,526.07274 c 1.4499,2.44238 4.56422,2.13701 7.23347,2.35194 2.83925,-0.57739 4.03889,-2.66748 5.7854,-4.70614 l 1.03873,0.55644 c -1.79845,2.98448 -2.77536,5.59653 -6.55637,6.44885 -4.51114,0.16182 -8.0261,0.0214 -9.14253,-4.64249 l 1.6413,-0.009 z" />
      <path
         style="fill:#000080;fill-opacity:1;fill-rule:nonzero;stroke:none"
         id="path4473"
         d="m 433.4739,577.48139 c 5.76468,-6.19836 13.07161,-10.8468 19.77542,-15.98599 l 0.73702,0.86486 c -6.31407,5.64437 -12.3049,11.78796 -19.19888,16.71083 l -1.31356,-1.5897 z" />
      <path
         style="fill:#000080;fill-opacity:1;fill-rule:nonzero;stroke:none"
         id="path4479"
         d="m 436.13934,484.09462 c 5.38721,-2.55594 10.7168,-5.23849 16.14618,-7.71347 l 0.53875,1.14183 c -5.35822,2.83438 -10.88662,5.35604 -16.19081,8.26875 l -0.49412,-1.69711 z" />
      <path
         style="fill:#000080;fill-opacity:1;fill-rule:nonzero;stroke:none"
         id="path4481"
         d="m 393.87397,574.48028 c 3.03944,1.40613 -0.12583,-0.27654 -0.4269,-0.93818 l -1.82892,-0.28987 c -0.81212,-3.52069 -1.88758,-4.841 2.31576,-4.49522 l -0.0599,5.72327 z" />
      <path
         style="fill:#000080;fill-opacity:1;fill-rule:nonzero;stroke:none"
         id="path4495"
         d="m 402.17142,567.72659 c 2.03007,2.87615 1.58146,2.0022 -1.24629,6.36195 l -1.00105,-0.29215 c 0.3586,-4.24337 0.62017,-8.68344 4.58464,-6.08204 l -2.3373,0.0122 z" />
      <path
         style="fill:#000080;fill-opacity:1;fill-rule:nonzero;stroke:none"
         id="path4497"
         d="m 409.60904,568.25104 c 0.64949,1.70085 -0.35145,2.99541 -1.02481,4.53118 l -1.00684,0.005 c -0.67545,-1.53345 -1.67382,-2.82012 -1.02481,-4.52045 l 3.05646,-0.016 z" />
      <path
         style="fill:#000080;fill-opacity:1;fill-rule:nonzero;stroke:none"
         id="path4499"
         d="m 395.00978,581.11453 c 0.74092,1.56294 -0.52347,2.62749 -1.25758,3.96486 l -1.25362,-0.1114 c -0.37031,-1.28045 -1.49272,-2.53721 -0.65314,-3.83689 l 3.16434,-0.0166 z" />
      <path
         style="fill:#000080;fill-opacity:1;fill-rule:nonzero;stroke:none"
         id="path4501"
         d="m 402.01302,579.7442 c 1.04276,1.37698 -0.0211,2.60812 -0.36615,3.99683 l -1.14043,0.1533 c -0.80559,-1.42622 -2.04407,-2.32103 -1.44201,-4.1347 l 2.94859,-0.0154 z" />
      <path
         style="fill:#000080;fill-opacity:1;fill-rule:nonzero;stroke:none"
         id="path4503"
         d="m 409.78569,580.60174 c 1.55265,-0.40322 3.39256,-0.96712 1.74116,3.51175 -0.53429,0.34503 -0.84111,0.9016 -1.26166,1.3524 l -0.74546,-0.12045 c -0.2363,-0.58417 -0.37709,-1.2137 -0.71123,-1.7583 -0.0131,-3.60663 1.3214,-4.15798 2.73915,-2.99462 l -1.76196,0.009 z" />
      <path
         style="fill:#000080;fill-opacity:1;fill-rule:nonzero;stroke:none"
         id="path4505"
         d="m 392.00778,591.24997 c -1.02068,-0.33573 1.88181,1.05955 2.89465,1.41823 -0.3979,0.32543 -0.81162,0.63049 -1.21743,0.94573 l -1.32858,0.0711 c -0.42186,-0.33231 -0.835,-0.67569 -1.26558,-0.99691 1.01368,-0.3696 3.91683,-1.79394 2.89465,-1.44854 l -1.97771,0.0104 z" />
      <path
         style="fill:#000080;fill-opacity:1;fill-rule:nonzero;stroke:none"
         id="path4507"
         d="m 401.63611,587.73501 c 2.47772,-1.44024 2.57086,1.02844 2.31592,3.84295 -0.38407,0.5732 -0.97318,0.94308 -1.46055,1.41539 l -1.00649,0.0269 c -0.50814,-0.44024 -1.10471,-0.78009 -1.5225,-1.31906 1.20472,-1.78472 -1.19885,-2.32843 1.6578,-2.45593 l 0.0158,-1.5102 z" />
      <path
         style="fill:#000080;fill-opacity:1;fill-rule:nonzero;stroke:none"
         id="path4509"
         d="m 413.90187,591.29679 c 0.93159,1.51602 -1.30003,1.66571 -2.0151,2.43501 l -1.18008,-0.12459 c -0.45135,-0.66497 -2.60606,-1.49619 -1.55133,-2.28557 l 4.74651,-0.0249 z" />
      <path
         style="fill:#000080;fill-opacity:1;fill-rule:nonzero;stroke:none"
         id="path4511"
         d="m 384.07277,548.3821 c 1.08473,-2.52965 8.19233,-1.19497 12.11966,-1.086 7.7593,1.23189 16.98684,-0.41025 23.9362,3.64461 l -0.10063,0.96566 c -7.52625,2.85195 -16.31427,-0.20169 -24.12474,-0.62932 -4.55257,-0.40111 -11.35532,0.39723 -13.3767,-2.88685 l 1.54621,-0.008 z" />
      <path
         style="fill:#000080;fill-opacity:1;fill-rule:nonzero;stroke:none"
         id="path4515"
         d="m 390.6844,540.25797 c 5.41274,-1.24504 11.35305,-0.46716 16.8236,0.5034 l -0.009,0.89892 c -5.47335,0.96746 -11.42084,1.75063 -16.83414,0.5034 l 0.02,-1.90572 z" />
      <path
         style="fill:#000080;fill-opacity:1;fill-rule:nonzero;stroke:none"
         id="path4517"
         d="m 388.06167,484.05601 c 4.42921,3.25205 3.15646,10.27213 1.7321,15.30155 l -1.2198,0.0828 c -1.60739,-4.26259 -3.24661,-10.75987 -0.53075,-13.62247 l 0.0184,-1.76189 z" />
      <path
         style="fill:#000080;fill-opacity:1;fill-rule:nonzero;stroke:none"
         id="path4519"
         d="m 387.67772,485.31704 c 5.5743,-0.68663 11.35013,-0.43081 16.98842,-0.37755 3.87574,0.0424 7.7468,0.26382 11.56722,0.77307 l -0.008,0.7551 c -3.82609,0.50859 -7.70227,0.73082 -11.58341,0.77307 -5.63544,0.0532 -11.40953,0.30945 -16.98052,-0.37755 l 0.0162,-1.54614 z" />
      <path
         style="fill:#000080;fill-opacity:1;fill-rule:nonzero;stroke:none"
         id="path4521"
         d="m 418.80233,486.11164 c 1.66128,3.31292 0.77833,6.78713 -0.54526,10.13523 l -1.3287,-0.0687 c -0.96941,-3.39513 -1.46806,-6.87824 0.25583,-10.05804 l 1.61813,-0.008 z" />
      <path
         style="fill:#000080;fill-opacity:1;fill-rule:nonzero;stroke:none"
         id="path4523"
         d="m 386.79038,496.05443 c 5.80803,-0.39344 11.66708,-0.33333 17.49404,-0.36376 4.47869,-0.10258 8.84467,0.77828 13.18129,1.75955 l -0.0361,1.15012 c -4.36338,0.86972 -8.7521,1.66161 -13.22923,1.47651 -5.81259,-0.11768 -11.65372,-0.0333 -17.44765,-0.42673 l 0.0377,-3.59569 z" />
      <path
         style="fill:#000080;fill-opacity:1;fill-rule:nonzero;stroke:none"
         id="path4525"
         d="m 390.32193,507.5476 c 1.71812,2.61476 0.79599,5.32692 -0.22835,8.16181 l -1.18654,-0.016 c -0.94364,-2.81919 -1.83027,-5.57004 -0.13132,-8.13769 l 1.54621,-0.008 z" />
      <path
         style="fill:#000080;fill-opacity:1;fill-rule:nonzero;stroke:none"
         id="path4527"
         d="m 388.758,505.68384 c 1.01464,-1.7449 3.82542,-1.55521 6.09487,-1.76802 6.60281,-0.66979 13.03046,-0.32143 19.47467,1.17528 l -0.007,0.7551 c -6.44641,1.49994 -12.87637,1.86151 -19.48493,1.23395 -1.93842,-0.15421 -5.28974,0.22383 -4.92655,-1.40233 l -1.15067,0.006 z" />
      <path
         style="fill:#000080;fill-opacity:1;fill-rule:nonzero;stroke:none"
         id="path4529"
         d="m 388.89034,513.77849 c 4.35023,-0.33401 10.23058,0.042 15.03581,0.10398 3.25632,-0.12926 6.41491,0.53515 9.58533,1.14019 l -0.0763,0.82353 c -3.19357,0.12473 -6.38912,0.27495 -9.58588,0.15646 -5.15844,-0.2124 -10.64712,0.0742 -15.62751,-0.99137 l 0.66855,-1.23279 z" />
      <path
         style="fill:#000080;fill-opacity:1;fill-rule:nonzero;stroke:none"
         id="path4531"
         d="m 414.40319,509.65995 c 1.48399,2.65197 0.44543,5.02982 -0.4315,7.70187 l -1.43833,0.008 c -0.87954,-2.67081 -1.91339,-5.04332 -0.4315,-7.69735 l 2.30133,-0.0121 z" />
    </g>
  </g>
</svg>
