<?xml version="1.0" encoding="UTF-8" standalone="no"?>
<!-- Created with Inkscape (http://www.inkscape.org/) -->

<svg
   xmlns:dc="http://purl.org/dc/elements/1.1/"
   xmlns:cc="http://creativecommons.org/ns#"
   xmlns:rdf="http://www.w3.org/1999/02/22-rdf-syntax-ns#"
   xmlns:svg="http://www.w3.org/2000/svg"
   xmlns="http://www.w3.org/2000/svg"
   xmlns:sodipodi="http://sodipodi.sourceforge.net/DTD/sodipodi-0.dtd"
   xmlns:inkscape="http://www.inkscape.org/namespaces/inkscape"
   height="48"
   id="svg1291"
   version="1.0"
   width="48"
   x="0.0000000"
   y="0.0000000"
   sodipodi:version="0.32"
   inkscape:version="0.47 r22583"
   sodipodi:docname="mseinstall-icon.svg"
   inkscape:output_extension="org.inkscape.output.svg.inkscape"
   inkscape:export-filename="/root/mse-installer/mseinstall-icon.png"
   inkscape:export-xdpi="90"
   inkscape:export-ydpi="90">
  <sodipodi:namedview
     inkscape:window-height="752"
     inkscape:window-width="1280"
     inkscape:pageshadow="2"
     inkscape:pageopacity="0.0"
     guidetolerance="10.0"
     gridtolerance="10.0"
     objecttolerance="10.0"
     borderopacity="1.0"
     bordercolor="#666666"
     pagecolor="#ffffff"
     id="base"
     showgrid="false"
     inkscape:zoom="7.671875"
     inkscape:cx="32"
     inkscape:cy="32"
     inkscape:window-x="-4"
     inkscape:window-y="-3"
     inkscape:window-maximized="1"
     inkscape:current-layer="svg1291" />
  <metadata
     id="metadata3">
    <rdf:RDF>
      <cc:Work
         rdf:about="">
        <dc:title>GIS-Computer</dc:title>
        <dc:description />
        <dc:subject>
          <rdf:Bag>
            <rdf:li>openclipart</rdf:li>
            <rdf:li />
            <rdf:li>11</rdf:li>
            <rdf:li>hardware</rdf:li>
            <rdf:li>computer</rdf:li>
            <rdf:li>icons</rdf:li>
          </rdf:Bag>
        </dc:subject>
        <dc:publisher>
          <cc:Agent
             rdf:about="http://www.openclipart.org">
            <dc:title>Glenn ROLLAND</dc:title>
          </cc:Agent>
        </dc:publisher>
        <dc:creator>
          <cc:Agent>
            <dc:title>Glenn ROLLAND</dc:title>
          </cc:Agent>
        </dc:creator>
        <dc:rights>
          <cc:Agent>
            <dc:title>Glenn ROLLAND</dc:title>
          </cc:Agent>
        </dc:rights>
        <dc:date />
        <dc:format>image/svg+xml</dc:format>
        <dc:type
           rdf:resource="http://purl.org/dc/dcmitype/StillImage" />
        <cc:license
           rdf:resource="http://web.resource.org/cc/PublicDomain" />
        <dc:language>en</dc:language>
      </cc:Work>
      <cc:License
         rdf:about="http://web.resource.org/cc/PublicDomain">
        <cc:permits
           rdf:resource="http://web.resource.org/cc/Reproduction" />
        <cc:permits
           rdf:resource="http://web.resource.org/cc/Distribution" />
        <cc:permits
           rdf:resource="http://web.resource.org/cc/DerivativeWorks" />
      </cc:License>
    </rdf:RDF>
  </metadata>
  <defs
     id="defs1294">
    <inkscape:perspective
       sodipodi:type="inkscape:persp3d"
       inkscape:vp_x="0 : 10.415927 : 1"
       inkscape:vp_y="0 : 1000 : 0"
       inkscape:vp_z="29.728693 : 10.415927 : 1"
       inkscape:persp3d-origin="14.864347 : 6.9439513 : 1"
       id="perspective16" />
  </defs>
  <g
     id="g1395"
     transform="matrix(0.09363418,0,0,0.09914446,-4.3674567,-22.426812)">
    <path
       d="M 105.3759,499.56408 62.264953,366.13485 227.47681,309.43459 l 43.37657,2.34298 29.78725,5.15457 7.76318,40.76796 214.07036,27.77171 14.44794,12.308 -0.0786,48.38999 -9.45052,70.41406 -19.29107,85.40917 -20.69687,12.7766 -41.31514,-10.65327 -11.79351,14.65099 -19.84115,12.7107 -19.84114,3.80735 -18.90396,0.0586 -20.30974,-6.03319 -17.49816,-9.31337 -13.28079,-12.59356 -2.50304,-10.71916 16.4009,-31.98561 L 276.66449,544.897 195.00328,609.09483 128.33717,578.636 105.3759,499.56408 z"
       id="path1346"
       style="fill:#fcfcfd" />
    <path
       d="m 366.29132,636.36125 c -13.57045,-3.29181 -25.71633,-9.25027 -34.76892,-17.05676 -10.02531,-8.6453 -12.16225,-13.55155 -11.33433,-26.02263 0.5535,-8.33744 1.56237,-11.03898 6.66762,-17.85477 l 6.01545,-8.0309 -4.46036,-1.65581 c -2.45319,-0.9107 -14.95522,-5.3841 -27.7823,-9.94091 l -23.32193,-8.28509 -10.75021,8.81036 c -5.91261,4.8457 -23.57384,19.43725 -39.24715,32.42566 -20.87071,17.29547 -29.61216,23.61529 -32.66416,23.61529 -2.29197,0 -18.59064,-7.01094 -36.21927,-15.57987 l -32.05205,-15.57986 -5.68285,-16.55241 C 108.83895,530.1325 58.362719,371.97699 58.362719,369.36282 c 0,-1.50454 1.271436,-3.81302 2.825402,-5.12997 1.553973,-1.31694 38.745857,-14.31657 82.648639,-28.88805 l 79.82322,-26.49362 14.6259,0.12502 c 26.24226,0.22432 63.88296,3.58586 65.33191,5.83451 0.72889,1.13116 1.8033,7.74409 2.38761,14.6954 0.5843,6.95131 1.48449,15.81098 2.00042,19.68816 l 0.93803,7.04941 30.10648,3.48887 c 118.34921,13.7148 173.50312,20.6644 181.04368,22.81222 10.49819,2.99023 18.36198,9.97986 20.83325,18.5174 3.75371,12.96802 1.84843,36.39481 -8.05433,99.03412 -6.43486,40.70324 -16.51455,89.23319 -20.83325,100.3043 -1.89723,4.8636 -5.63499,10.93908 -8.30615,13.50108 -6.89734,6.61553 -17.31614,6.40738 -39.75466,-0.79422 -9.34365,-2.99881 -17.11971,-5.26356 -17.28014,-5.03276 -0.16043,0.23079 -1.91309,3.00628 -3.89479,6.16773 -4.58093,7.30805 -13.49812,14.08429 -25.42759,19.32263 -7.77886,3.41574 -12.12761,4.19593 -25.5673,4.58683 -10.4304,0.30337 -19.51256,-0.33395 -25.51773,-1.79063 z m 46.9282,-6.13685 c 11.14372,-4.44071 7.74822,-6.14812 -14.32388,-7.20263 -16.54597,-0.79052 -22.73331,-1.82194 -35.3896,-5.89945 -8.43584,-2.71779 -19.81514,-7.33881 -25.28731,-10.26894 -12.33022,-6.60232 -14.31171,-6.75148 -11.12307,-0.8373 5.29242,9.81622 22.99957,20.82627 41.25392,25.6511 11.70603,3.09402 35.39674,2.33226 44.86994,-1.44278 z m 75.15365,-23.95889 c 2.78867,-1.01693 4.95343,-3.92876 7.19521,-9.6784 7.60064,-19.49376 27.23471,-130.18277 32.75186,-184.64181 2.14963,-21.21878 2.2995,-20.91345 -12.24255,-24.94333 -8.96415,-2.48415 -229.65106,-28.58811 -241.73639,-28.59381 -13.39656,-0.006 -13.23355,-0.83165 -12.02531,60.87967 0.57003,29.11407 1.80294,64.78103 2.73981,79.25991 1.89119,29.22763 3.7186,35.14189 12.32504,39.88914 5.47275,3.01873 30.31789,11.87763 119.22275,42.51072 78.52342,27.05604 83.35095,28.38788 91.76958,25.31791 z M 453.03868,584.4671 c -16.89689,-4.35847 -153.14677,-48.80357 -161.49772,-52.681 -3.96048,-1.8389 -8.09673,-4.84347 -9.19166,-6.67682 -2.56857,-4.30083 -2.88553,-134.55323 -0.33945,-139.49631 1.05123,-2.04088 3.53663,-3.38174 6.8391,-3.68961 4.71942,-0.43997 52.78106,6.3825 145.69574,20.68189 52.50332,8.08014 54.89351,9.43518 54.89351,31.12002 0,26.90614 -13.83768,140.56675 -18.04779,148.2417 -1.75017,3.19052 -4.50604,5.64912 -6.16993,5.50438 -0.44399,-0.0386 -5.92581,-1.39053 -12.1818,-3.00425 z M 164.30963,528.58534 c -3.06544,-11.38071 -5.18361,-21.29731 -4.70707,-22.03688 1.9011,-2.95032 7.71774,5.6814 12.03037,17.85272 6.23758,17.60397 4.69815,10.18653 -10.18644,-49.08158 -7.05855,-28.10607 -15.12388,-60.85776 -17.92293,-72.78154 -2.79907,-11.92379 -5.12367,-21.76795 -5.16578,-21.87593 -0.31483,-0.80725 -72.678214,-12.7011 -73.676034,-12.10961 -1.465358,0.86864 0.31698,7.15559 11.829865,41.72825 4.537921,13.62718 8.529498,23.60775 8.870156,22.17901 0.768375,-3.22251 6.397405,-2.62895 27.067203,2.85417 21.73046,5.76449 27.75729,8.70489 30.93266,15.09163 2.24666,4.51878 2.38123,6.19292 0.77036,9.58392 -1.794,3.77652 -2.50185,4.02793 -8.75484,3.10944 -23.05554,-3.38656 -27.70535,-2.91684 -21.33366,2.15512 1.60328,1.27623 2.42177,4.74218 2.42177,10.25514 0,8.27933 0.0289,8.32738 5.00317,8.32738 16.5015,0 33.35054,21.08399 43.63008,54.59636 5.7974,18.90012 5.29854,12.8267 -0.80888,-9.8476 z M 105.7774,421.97958 c -9.885249,-2.43101 -19.801592,-5.56907 -22.036311,-6.97349 -5.717926,-3.59344 -8.451783,-10.40435 -5.965082,-14.86094 1.782265,-3.19411 2.714095,-3.38007 12.647686,-2.52398 5.898026,0.50828 16.661657,2.70346 23.919177,4.87817 15.3417,4.59713 21.51657,9.97519 21.51657,18.74006 0,5.10585 -0.22297,5.29847 -6.05443,5.23064 -3.32994,-0.0387 -14.14236,-2.05944 -24.02761,-4.49046 z m 22.00946,-2.50935 c 0,-5.60736 -8.37826,-9.41403 -30.3777,-13.80209 -14.233883,-2.83913 -13.214202,-2.81844 -13.214202,-0.26817 0,2.54256 7.89667,6.00986 25.024982,10.98804 12.99572,3.7771 18.56692,4.70194 18.56692,3.08222 z m 3.22904,-6.86664 c 0,-0.8517 -0.76942,-1.54855 -1.7098,-1.54855 -0.94039,0 -1.26079,0.69685 -0.71198,1.54855 1.2786,1.98427 2.42178,1.98427 2.42178,0 z m 23.27424,120.33173 c -1.40172,-3.94572 -5.4468,-10.16128 -8.98907,-13.81236 -6.80062,-7.00951 -6.7256,-5.67259 0.20031,3.56979 2.29258,3.05936 5.53388,8.46701 7.20291,12.017 3.94178,8.38413 4.83831,7.38099 1.58585,-1.77443 z m -18.4307,-80.7894 c 0,-3.16864 -4.46944,-5.14864 -23.2344,-10.29304 -18.796243,-5.153 -20.341541,-5.34217 -16.933099,-2.07301 2.075716,1.9909 35.004779,14.29339 38.956609,14.55441 0.66599,0.044 1.21089,-0.94078 1.21089,-2.18836 z"
       id="path1344"
       style="fill:#d2d2d2" />
    <path
       d="m 375.6149,637.61072 c -8.3571,-1.06312 -22.16018,-5.23883 -30.14359,-9.11903 -26.64708,-12.95134 -33.13316,-34.7831 -16.53484,-55.65541 2.38924,-3.00445 4.06113,-5.66027 3.7153,-5.90179 -0.34583,-0.24153 -12.91126,-4.73576 -27.92321,-9.98714 l -27.29443,-9.54801 -13.06844,10.57737 c -7.18763,5.81755 -25.02232,20.43498 -39.63262,32.48317 -14.61029,12.0482 -27.95889,21.90581 -29.66354,21.90581 -2.94505,0 -52.73884,-22.9746 -63.47238,-29.28583 -6.04353,-3.55354 -6.41165,-4.56598 -42.559718,-117.05153 -13.411289,-41.73324 -25.43627,-78.96434 -26.722178,-82.73579 -3.263678,-9.57204 -3.053043,-18.22261 0.487387,-20.01614 1.553966,-0.78722 39.100039,-13.48542 83.435719,-28.21822 l 80.61033,-26.78691 37.01075,2.27149 c 31.53614,1.9355 37.31405,2.66936 39.06125,4.96116 1.12778,1.47931 2.53109,8.42712 3.11849,15.43957 0.58737,7.01245 1.47703,15.63396 1.97703,19.1589 l 0.90907,6.40899 14.7779,1.7268 c 135.75313,15.86285 187.55355,22.34441 195.3574,24.4442 17.40387,4.68291 23.62996,14.0111 23.64761,35.42986 0.0229,27.73856 -19.84848,149.04838 -29.14292,177.91068 -2.23808,6.94995 -5.20474,12.10163 -9.41141,16.34306 -5.45693,5.50203 -6.98589,6.19388 -13.68826,6.19388 -4.25714,0 -15.38,-2.42934 -25.52409,-5.57471 -16.88694,-5.23611 -18.07741,-5.40597 -19.59992,-2.79654 -3.1971,5.47947 -14.7697,16.40148 -21.22022,20.02728 -11.77217,6.61704 -31.26294,9.58842 -48.50647,7.39483 z m 39.55562,-8.41379 c 4.8839,-2.17781 11.31945,-6.16032 14.30121,-8.85002 4.48943,-4.04969 5.23566,-5.62186 4.34096,-9.14574 -1.57556,-6.20543 -6.82935,-10.31446 -18.28568,-14.30137 l -10.13784,-3.52805 -5.347,5.93281 -5.347,5.93281 -17.22359,-6.50137 c -9.47299,-3.57576 -17.78214,-6.50138 -18.46479,-6.50138 -2.96324,0 -6.80236,-6.68355 -6.80236,-11.84225 l 0,-5.6127 -7.29313,0.9588 c -14.61636,1.92152 -21.07483,8.6363 -20.72456,21.54706 0.33627,12.39586 16.00905,26.05606 37.85287,32.99211 16.6403,5.28378 39.91997,4.81025 53.13091,-1.08071 z m 79.20065,-16.87714 c 1.70841,-0.87696 4.16278,-3.55421 5.45417,-5.94944 6.1861,-11.47378 32.39678,-166.58292 33.61401,-198.92047 0.38072,-10.11433 0.17705,-10.76324 -4.68903,-14.93924 -3.43534,-2.94816 -8.77829,-5.17088 -16.45547,-6.84569 -11.03881,-2.40812 -230.62888,-28.7996 -239.67866,-28.80582 -2.71551,-0.002 -6.19196,1.60696 -8.72751,4.0389 l -4.21419,4.04201 1.03385,62.93249 c 1.15123,70.07534 2.96396,98.52476 6.72191,105.49488 3.17402,5.88711 6.5377,7.496 42.75353,20.44967 45.2408,16.18173 165.22923,58.09117 168.82551,58.96722 5.61717,1.36836 12.17769,1.16997 15.36188,-0.46451 z M 453.11162,581.8729 c -1.77597,-0.43015 -38.33125,-11.91337 -81.23395,-25.51823 -60.35761,-19.14 -79.1267,-25.69749 -82.96337,-28.98548 -4.88557,-4.18687 -4.97782,-4.54366 -6.2776,-24.27809 -1.61796,-24.56524 -1.82453,-75.83982 -0.401,-99.53641 0.95236,-15.85337 1.38754,-17.71111 4.46383,-19.05549 3.6016,-1.57394 31.248,2.23707 125.80823,17.34249 66.82511,10.67492 70.02813,11.54746 73.71313,20.0803 3.7557,8.69656 -0.49573,59.44098 -10.54948,125.91718 -4.71564,31.18018 -5.92674,34.23836 -13.69143,34.57287 -3.10164,0.13363 -7.0924,-0.10899 -8.86836,-0.53914 z m -257.51513,25.17709 c 0,-0.36855 -2.88248,-12.0407 -6.40551,-25.93811 -14.36054,-56.64844 -43.71277,-173.60492 -46.17528,-183.98934 -1.44949,-6.11253 -2.30031,-12.79515 -1.89071,-14.85029 0.59576,-2.98918 0.0629,-3.74293 -2.66404,-3.76818 -1.87482,-0.0174 -18.83596,-2.67853 -37.69142,-5.91372 -18.855459,-3.23518 -35.120499,-5.38549 -36.144544,-4.77846 -1.308164,0.77546 5.212568,23.14331 21.925704,75.21103 35.93687,111.95692 41.27035,128.004 43.79177,131.75836 1.2751,1.8986 4.59045,4.57894 7.36744,5.95629 l 5.04909,2.5043 -3.2603,-4.40775 c -5.30251,-7.16872 -13.17993,-25.01125 -18.24372,-41.32248 -5.8032,-18.69295 -8.17435,-46.39995 -4.38031,-51.18395 6.29286,-7.93482 25.3593,4.65751 35.59855,23.51089 8.46445,15.58545 24.56682,65.26929 25.67517,79.22067 0.28257,3.55686 -0.46548,5.74218 -2.3574,6.8868 -2.36718,1.43217 -1.30174,2.40194 7.30621,6.6502 9.85852,4.86545 12.4993,5.8064 12.4993,4.45374 z M 122.13606,456.13537 c -7.99185,-2.36359 -17.13314,-5.37541 -20.31399,-6.69297 -6.978599,-2.89064 -13.103771,-9.92214 -12.451736,-14.29417 0.398724,-2.67353 1.517357,-3.138 6.933487,-2.87893 9.142819,0.43736 43.253809,11.55891 44.173199,14.40224 0.64789,2.00373 0.37695,2.02658 -1.97227,0.16647 -1.49784,-1.186 -3.13128,-1.76509 -3.62986,-1.28687 -0.96863,0.92905 3.9446,3.87121 6.63535,3.97339 1.89708,0.0721 3.80957,6.3531 2.78549,9.14823 -1.03707,2.8306 -5.8869,2.27527 -22.15967,-2.53739 z m 15.3379,-1.54956 c 0,-5.25786 -10.15667,-10.02653 -33.47243,-15.71567 -8.931779,-2.1794 -11.139462,-1.62725 -9.534374,2.38463 1.160035,2.89949 8.592784,6.13057 25.247134,10.97516 13.2725,3.86085 17.75967,4.45609 17.75967,2.35588 z m -22.60322,-32.05389 c -20.952999,-5.32374 -25.88746,-7.07576 -30.56841,-10.85359 -5.57894,-4.50254 -6.892575,-12.3942 -2.341923,-14.06908 5.412563,-1.99213 40.155373,6.25577 46.656683,11.07623 2.59314,1.92272 2.66591,2.19674 0.38066,1.43341 -1.55397,-0.51906 -2.8254,-0.25766 -2.8254,0.58087 0,2.3407 4.49763,5.38875 6.34,4.29662 1.92638,-1.14191 4.13567,5.9704 2.59654,8.35899 -1.43336,2.22447 -9.54054,1.8946 -20.23815,-0.82345 z m 12.8914,-3.34702 c -0.0564,-6.17691 -3.01922,-7.68121 -24.98351,-12.68457 -16.387868,-3.73308 -20.198185,-3.94155 -20.198185,-1.1052 0,4.90638 10.798332,9.59772 32.472705,14.10778 13.40858,2.79007 12.7375,2.80687 12.70899,-0.31801 z m 38.18995,158.33677 c 1.10165,-2.75355 -2.84596,-19.22688 -9.32953,-38.93203 -3.70088,-11.24791 -6.0081,-15.49138 -11.22756,-20.6499 -11.65245,-11.51644 -25.68071,-14.20395 -25.68071,-4.91989 0,6.22546 9.06705,36.3388 13.87909,46.09496 4.28875,8.69524 8.81157,12.6199 20.31207,17.62572 8.43969,3.67354 10.82749,3.82836 12.04664,0.78114 z"
       id="path1342"
       style="fill:#aaaaaa" />
    <path
       d="m 369.50001,636.30956 c -21.36961,-4.07628 -40.82388,-15.65531 -46.52249,-27.68983 -5.73841,-12.11853 -3.02207,-26.17498 6.97218,-36.0795 3.75049,-3.71681 4.44773,-5.18723 2.74358,-5.78599 -1.25664,-0.44152 -14.13818,-4.99329 -28.62563,-10.11507 -14.48746,-5.12176 -26.60516,-9.31231 -26.92823,-9.31231 -0.32306,0 -18.23086,14.63374 -39.79509,32.51941 -21.56424,17.88568 -40.54283,32.51942 -42.17465,32.51942 -4.70429,0 -65.94093,-29.85946 -68.27963,-33.29369 -1.16002,-1.70339 -12.04132,-33.75824 -24.18068,-71.23299 C 55.59403,362.39181 56.693156,366.37345 62.802641,363.27462 c 1.553966,-0.78819 39.075499,-13.46275 83.381179,-28.16567 l 80.55579,-26.73258 36.9747,2.322 c 22.96496,1.44219 37.69014,3.00818 38.86286,4.13298 1.03847,0.99605 2.76839,10.57608 3.84426,21.28895 1.07586,10.71289 2.23769,19.74806 2.58188,20.07817 0.34417,0.33011 33.63587,4.44425 73.98154,9.14253 134.12812,15.61931 139.6011,16.45556 148.79541,22.73496 11.16807,7.62741 13.01633,22.83744 7.77889,64.01548 -3.78468,29.75606 -13.95491,90.62994 -19.40372,116.14076 -5.75827,26.95966 -9.73128,37.81168 -16.24916,44.3834 -5.19573,5.2387 -6.79111,5.94426 -13.44067,5.94426 -4.25714,0 -15.38,-2.42934 -25.52409,-5.57471 -17.06935,-5.29268 -18.06301,-5.43065 -19.6404,-2.72716 -3.85877,6.61349 -16.11431,17.32947 -24.03167,21.01279 -15.99784,7.44251 -31.33984,8.93577 -51.76943,5.03878 z m 33.5052,-3.0895 c 5.22599,-1.30558 13.08379,-4.24368 17.46179,-6.52912 7.84767,-4.0967 20.53575,-16.20685 20.53575,-19.60034 0,-1.55645 -36.97245,-15.89943 -37.65978,-14.60962 -3.58176,6.7214 -6.26213,9.90272 -8.6421,10.25722 -1.61745,0.24093 -10.5694,-2.32049 -19.89323,-5.69204 -18.01506,-6.51435 -22.23264,-10.09196 -22.4852,-19.07341 -0.0996,-3.54056 -1.15906,-4.49549 -6.77986,-6.11072 -6.57001,-1.88798 -6.73358,-1.83931 -11.8644,3.53062 -7.92767,8.29709 -11.22977,17.90767 -8.94688,26.03927 3.83815,13.67137 24.3449,27.27378 47.88054,31.75982 14.81027,2.82291 19.19075,2.827 30.39337,0.0283 z m 94.017,-20.78786 c 3.89501,-2.2779 5.7893,-5.03246 7.71664,-11.22115 7.13538,-22.91171 31.52029,-170.59891 31.52029,-190.90265 0,-15.18969 -6.35227,-21.49321 -25.60397,-25.40753 -11.04104,-2.24489 -229.72133,-28.05278 -237.434,-28.02113 -13.17964,0.0541 -13.92167,2.6981 -13.46566,47.98113 0.48659,48.32087 3.39259,113.29517 5.47146,122.33431 2.02308,8.79669 6.0346,12.88975 16.51259,16.84821 41.34917,15.62124 181.7072,64.53398 196.39704,68.44152 13.27175,3.53032 12.75647,3.53176 18.88561,-0.0527 z M 430.5084,572.12657 c -39.3188,-11.54509 -133.44575,-41.89835 -138.30707,-44.6001 -2.36629,-1.31508 -5.11285,-4.09725 -6.10347,-6.18259 -4.67,-9.83072 -6.00381,-122.71221 -1.54441,-130.70423 2.48815,-4.45917 11.57604,-3.62302 70.25121,6.46353 56.64045,9.73678 75.60542,13.60188 108.8013,22.17392 25.85583,6.67667 25.24814,5.7409 22.66003,34.89374 -4.131,46.53191 -14.35215,116.3697 -17.98399,122.87856 -2.4129,4.32432 -9.36754,3.41796 -37.7736,-4.92283 z m -234.07613,31.33499 c -4.06697,-15.34317 -19.00449,-81.78626 -21.84569,-97.17109 -7.04023,-38.12211 -5.85566,-67.48567 4.05991,-100.63867 2.04059,-6.82276 4.55442,-16.38129 5.58629,-21.2412 2.91257,-13.71752 12.60821,-21.24814 50.86309,-39.50535 16.90262,-8.0668 29.64222,-14.33176 28.31025,-13.92214 -1.33198,0.40963 -29.21588,11.03485 -61.96421,23.61162 l -59.54243,22.86684 -13.11074,-1.90468 c -7.2109,-1.04757 -23.13669,-3.66013 -35.390637,-5.80568 -12.253942,-2.14555 -24.111916,-3.45998 -26.351045,-2.92096 -3.630084,0.87386 -3.947916,1.51908 -2.933719,5.95558 1.295066,5.66508 56.694361,177.41864 62.500501,193.76929 3.59175,10.11471 4.29234,10.97387 12.57902,15.42637 l 8.77544,4.71511 -5.47625,-6.0521 c -8.72128,-9.63836 -14.73285,-24.89387 -23.52306,-59.69422 -7.82399,-30.97511 -4.34766,-41.99817 10.91619,-34.6141 13.36593,6.46595 22.90799,20.62793 32.55553,48.31782 8.50575,24.41277 16.27594,54.69646 14.91002,58.11056 -0.60317,1.50762 -2.88046,2.59878 -5.51767,2.64379 -3.67464,0.0627 -2.29039,1.17427 7.61828,6.11753 15.0025,7.48448 18.5592,7.88993 16.98093,1.93568 z m -62.9946,-144.59584 c -22.09703,-4.84115 -38.544539,-12.02121 -41.932696,-18.30546 -2.534987,-4.70181 -1.867434,-9.37497 1.338927,-9.37305 6.08076,0.004 45.645919,12.16743 40.094859,12.32664 -1.19645,0.0343 -1.60692,0.84668 -0.94604,1.87231 0.78358,1.21604 0.28921,1.48848 -1.50365,0.82861 -5.87105,-2.16089 -29.5812,-8.67274 -33.227919,-9.12588 -5.109868,-0.63493 -6.009178,2.36036 -1.829927,6.09482 3.339167,2.98378 33.737246,12.86919 39.392356,12.81032 2.3809,-0.0248 2.79358,-0.8217 1.99863,-3.85962 -0.90433,-3.45586 -0.64644,-3.70228 2.65038,-2.53255 2.60287,0.92353 3.65216,2.5425 3.65216,5.63502 0,5.10453 -1.08916,5.51252 -9.68708,3.62884 z m -24.41981,-38.43191 c -9.878964,-2.42949 -19.468252,-5.19056 -21.309528,-6.13571 -7.366407,-3.7813 -11.210249,-14.67841 -5.87085,-16.64362 3.146277,-1.158 19.295918,1.68627 33.370958,5.87728 8.96585,2.66969 10.46528,3.57713 8.70327,5.26715 -1.76202,1.69002 -4.74083,1.39862 -17.29011,-1.69136 -17.006739,-4.18753 -24.053135,-4.73313 -24.016432,-1.85954 0.06913,5.41224 6.938488,8.7594 27.841082,13.56587 17.28353,3.97428 17.88945,3.94601 16.94546,-0.79039 -0.77269,-3.8769 0.92725,-5.25545 2.8332,-2.29756 0.55776,0.86559 1.63812,1.2039 2.40082,0.75179 1.74013,-1.03151 3.79674,4.83909 2.43538,6.95181 -1.53653,2.38457 -6.47585,1.8164 -26.04325,-2.99572 z m 57.90307,157.52835 c 1.85291,-5.3316 -11.87844,-49.31154 -17.71411,-56.73626 -5.29196,-6.73297 -17.56772,-14.16116 -23.40259,-14.16116 -7.43731,0 -7.93801,4.54738 -2.60341,23.64459 8.86222,31.72558 12.12734,37.07802 27.18925,44.57065 9.53531,4.7434 15.47934,5.70783 16.53086,2.68218 z"
       id="path1340"
       style="fill:#919191" />
    <path
       d="m 373.43663,636.90133 c -19.61099,-2.69234 -40.29188,-13.27205 -48.11886,-24.61612 -8.06125,-11.68362 -6.50477,-27.83289 3.72978,-38.69841 l 5.73063,-6.08395 -4.60661,-1.71085 c -12.99814,-4.82738 -51.94171,-18.46514 -52.72848,-18.46514 -0.49872,0 -18.16059,14.30385 -39.24859,31.78634 -21.08802,17.48249 -39.94056,32.17119 -41.89454,32.64157 -2.48227,0.59755 -13.45975,-3.9639 -36.43439,-15.13951 l -32.88172,-15.99471 -3.53157,-10.06554 C 110.70412,534.2208 59.977239,373.53068 59.977239,369.48192 c 0,-5.98844 -6.680714,-3.22449 66.195111,-27.38634 31.5234,-10.45153 67.12345,-22.29435 79.11123,-26.31736 l 21.79595,-7.31458 36.97683,2.44341 c 20.33726,1.34388 37.67918,3.11707 38.5376,3.94042 0.85842,0.82334 2.52048,10.33829 3.69346,21.14432 1.173,10.80603 2.44554,19.94738 2.82791,20.31412 0.38236,0.36674 39.11347,5.16204 86.06912,10.65622 125.90152,14.73148 126.26653,14.78848 136.42105,21.30393 8.74608,5.61174 11.39323,14.99052 10.36586,36.72588 -1.4351,30.36176 -18.46807,134.64691 -26.76529,163.87181 -8.70022,30.64433 -16.96797,34.65859 -49.82269,24.19057 -17.59666,-5.60656 -18.37688,-5.7192 -20.02686,-2.8913 -0.94428,1.61838 -4.86443,6.17002 -8.71145,10.11473 -8.48282,8.69826 -21.63675,14.68123 -36.9427,16.80312 -12.57631,1.74348 -12.24196,1.74577 -26.26574,-0.17954 z m 27.52741,-3.0226 c 16.21606,-3.25075 31.26378,-12.53 38.57798,-23.78932 l 2.98764,-4.59912 -18.80858,-6.62783 c -20.77734,-7.3216 -21.4434,-7.46683 -21.5204,-4.69216 -0.0759,2.73457 -5.71698,8.90412 -8.14143,8.90412 -1.11473,0 -9.83226,-2.86953 -19.37229,-6.37673 l -17.34551,-6.37674 -2.99628,-8.57374 c -2.62462,-7.51021 -3.73232,-8.81817 -8.92976,-10.54404 -5.89107,-1.95619 -5.97954,-1.92232 -12.3867,4.7446 -16.08388,16.73596 -10.55839,35.99238 13.89894,48.438 18.3581,9.34192 37.77438,12.75291 54.03639,9.49296 z m 100.09228,-24.53719 c 2.39403,-2.51922 5.8736,-9.303 7.73236,-15.07508 7.21963,-22.41928 26.92694,-138.34405 28.56917,-168.05289 1.55416,-28.11593 -2.64453,-35.47594 -23.14464,-40.57099 -10.68007,-2.65439 -229.02768,-28.78655 -240.52648,-28.78655 -15.32672,0 -16.15831,5.17149 -13.57121,84.39561 2.79624,85.62813 3.79224,92.98463 13.4038,99.00039 7.62042,4.76955 196.542,71.58026 209.66321,74.14584 7.08461,1.38525 13.46847,-0.42069 17.87379,-5.05633 z m -45.52293,-34.26922 c -12.43496,-1.93635 -151.33048,-44.4884 -161.624,-49.51514 -7.0352,-3.43558 -8.97448,-7.7923 -10.29927,-23.13808 -1.7476,-20.24336 -1.32509,-99.51631 0.5548,-104.09629 0.95161,-2.31838 3.39059,-4.6102 5.41996,-5.09292 4.32381,-1.02852 104.93706,16.76552 140.5919,24.86448 31.16095,7.07817 50.94199,12.51602 53.79749,14.78902 1.41919,1.12971 2.23471,4.95972 2.23435,10.49353 -10e-4,17.87755 -14.04087,124.20903 -17.00833,128.81427 -1.92319,2.98464 -6.63002,3.97689 -13.6669,2.88113 z m -193.4062,-22.17804 c 8.48951,-7.08429 8.98302,-7.84619 6.2649,-9.67223 -8.82975,-5.9319 -10.89851,-25.33888 -12.52389,-117.4869 -0.95395,-54.08265 -0.8088,-59.33996 1.78287,-64.57834 3.99324,-8.07129 9.49337,-9.48341 29.34864,-7.53508 8.70699,0.85439 16.03464,1.35801 16.28366,1.11916 0.88902,-0.85268 -3.2184,-34.83001 -4.43961,-36.72521 -0.95753,-1.48602 -3.88959,-1.02849 -12.69063,1.98032 -6.29498,2.15205 -11.44541,3.68291 -11.44541,3.40191 0,-0.28101 1.99796,-1.6129 4.43992,-2.95976 4.24336,-2.34042 3.86813,-2.40774 -8.47621,-1.52072 -7.10386,0.51045 -31.54147,3.32042 -54.30579,6.24438 l -41.38966,5.31628 -46.6014,15.37956 c -60.289755,19.89704 -65.168314,21.69067 -65.168314,23.95937 0,2.59632 62.134854,195.41994 65.304084,202.65871 2.03113,4.63927 4.54122,6.76123 12.61141,10.66128 l 10.07557,4.86918 -6.60764,-6.16459 c -6.15045,-5.73803 -16.93166,-26.16773 -16.72731,-31.69713 0.0415,-1.12384 1.46751,1.37563 3.16882,5.55438 3.95138,9.70531 10.01075,15.85202 20.16613,20.45679 8.50649,3.85714 14.5094,4.68065 16.10204,2.20899 1.02201,-1.58606 -3.33558,-19.29661 -9.76281,-39.67893 -2.69709,-8.55315 -5.78415,-14.57267 -9.75581,-19.02307 -9.66285,-10.82758 -24.29166,-16.02539 -27.86514,-9.90085 -2.35342,4.03348 -3.40654,1.89822 -4.46746,-9.05795 -0.82573,-8.52735 -0.49854,-10.43517 2.36157,-13.77016 l 3.32011,-3.87136 8.67831,4.29718 c 8.99251,4.45276 17.26533,13.34209 23.52941,25.2829 7.62954,14.54367 22.44893,62.72309 23.29082,75.72087 l 0.4012,6.19418 -6.45806,-0.21053 c -6.16175,-0.20086 -5.75663,0.1274 8.82968,7.15427 l 15.28775,7.36478 29.11141,-24.14081 c 16.01128,-13.27745 33.25836,-27.60133 38.32684,-31.83087 z M 118.22723,517.25931 c -0.0701,-1.63241 0.31149,-2.54703 0.84798,-2.03247 0.53649,0.51458 0.59385,1.85019 0.12746,2.96805 -0.5154,1.23532 -0.89796,0.86839 -0.97544,-0.93558 z m 2.81918,-62.04905 c -13.59682,-3.99994 -27.164359,-9.40122 -27.164359,-10.81422 0,-0.49562 1.99796,0.0774 4.439915,1.27346 6.017674,2.94732 31.533234,10.29331 35.752814,10.29331 2.01555,0 3.39918,-0.99173 3.39918,-2.43636 0,-3.78944 5.57349,-1.92305 6.16672,2.06504 0.44786,3.01093 -0.19098,3.45493 -4.84355,3.36622 -2.9477,-0.0562 -10.93553,-1.74254 -17.75072,-3.74745 z M 110.0272,439.65532 c -15.616086,-4.6355 -18.389313,-4.75167 -17.291281,-0.72436 0.464749,1.70458 0.18622,2.70872 -0.618951,2.23142 -0.805172,-0.47729 -1.46395,-2.93048 -1.46395,-5.45154 0,-5.23301 -0.167497,-5.23768 20.181442,0.56251 6.21588,1.77175 11.82035,3.1024 12.45438,2.95701 0.63404,-0.14541 0.73794,0.77252 0.2309,2.03986 -0.50704,1.26733 -1.02579,2.23118 -1.15279,2.14187 -0.12698,-0.0893 -5.67987,-1.77985 -12.33975,-3.75677 z m 15.33789,-15.62864 c -10.58268,-2.16437 -29.830195,-7.33041 -29.279465,-7.85864 0.358328,-0.34368 6.487315,0.80425 13.619975,2.55096 16.13977,3.95247 18.08126,3.96449 18.08126,0.11196 0,-2.71872 0.46183,-2.86207 4.09924,-1.27247 7.79385,3.40601 2.78738,8.37193 -6.52101,6.46819 z m -36.326586,-9.87455 c -1.331975,-0.82562 -1.695238,-1.50111 -0.807256,-1.50111 0.887981,0 2.704314,0.67549 4.03629,1.50111 1.331975,0.82562 1.695238,1.50111 0.807256,1.50111 -0.887981,0 -2.704314,-0.67549 -4.03629,-1.50111 z m -8.760297,-8.97844 c -0.708727,-2.113 -0.426343,-4.4452 0.695152,-5.7413 2.04683,-2.36551 4.400759,-2.17148 23.847751,1.96581 9.36604,1.99259 11.32903,2.8846 9.68709,4.40196 -1.63089,1.50711 -4.7945,1.32576 -15.208806,-0.87183 -13.390334,-2.8256 -15.621077,-2.63161 -17.031197,1.48109 -0.58113,1.69489 -1.119082,1.36084 -1.98999,-1.23573 z"
       id="path1338"
       style="fill:#707071" />
    <path
       d="m 363.94924,634.83727 c -27.10099,-7.25214 -44.09012,-22.80818 -43.99064,-40.27983 0.0342,-6.01097 5.45038,-17.42477 10.83099,-22.82486 2.32487,-2.33329 3.91673,-4.47294 3.53748,-4.75476 -2.12731,-1.58086 -56.50082,-19.86332 -57.74091,-19.41472 -0.81806,0.29592 -18.29339,14.47493 -38.83409,31.5089 -20.5407,17.03398 -38.87227,31.63436 -40.73684,32.44528 -2.76969,1.20459 -9.46545,-1.48771 -36.58677,-14.71116 l -33.19664,-16.18557 -3.02395,-8.51699 C 113.89413,543.05483 59.977239,372.6744 59.977239,369.13112 c 0,-3.82593 1.042366,-4.68607 9.283461,-7.66052 13.2307,-4.77535 148.67785,-49.64336 155.07588,-51.37019 5.78539,-1.56149 76.03274,2.70974 78.23153,4.75669 0.67149,0.62512 2.086,10.29254 3.14335,21.48316 l 1.92247,20.34658 5.73646,0.87501 c 3.15507,0.48125 47.36968,5.74588 98.2547,11.69917 50.88502,5.95329 97.58314,11.92909 103.77359,13.27955 11.26047,2.45649 19.18086,7.12545 22.65762,13.35637 3.36165,6.02462 4.52056,21.78847 2.87271,39.0752 -3.44085,36.09588 -19.23119,129.51633 -25.796,152.61685 -9.27523,32.63806 -16.09251,35.83198 -52.14327,24.42925 l -15.95934,-5.04788 -2.6102,3.84517 c -6.06276,8.93129 -14.11319,15.7693 -24.14041,20.50482 -9.96917,4.7081 -11.94014,5.07221 -29.29116,5.41114 -12.43864,0.24298 -21.39827,-0.38467 -27.03939,-1.89422 z m 50.23804,-4.38687 c 4.95488,-2.17572 11.47946,-5.76328 14.49907,-7.97234 5.73947,-4.19883 14.98297,-15.81368 13.62308,-17.11799 -0.43314,-0.41544 -9.43479,-3.80251 -20.00366,-7.5268 l -19.21612,-6.77145 -1.78475,4.07122 c -3.7208,8.48754 -5.13874,8.55422 -25.0717,1.17894 l -18.37796,-6.7999 -0.4786,-7.66986 -0.4786,-7.66986 -8.94232,-2.70363 c -8.58624,-2.59598 -9.07289,-2.59093 -12.22114,0.127 -5.84584,5.04674 -12.56022,17.96698 -12.57627,24.20002 -0.0202,7.85643 3.19844,13.38205 12.24303,21.01811 20.75695,17.52442 56.02878,23.6294 78.78594,13.63654 z m 86.40021,-19.96576 c 6.748,-6.61996 11.63092,-21.84197 18.6667,-58.19141 12.9827,-67.07338 21.44037,-130.14192 19.29368,-143.87215 -1.27159,-8.13312 -6.23678,-15.60377 -12.78857,-19.24185 -2.66093,-1.47755 -10.65031,-3.77943 -17.75418,-5.11528 -18.36549,-3.45354 -222.25636,-27.20792 -233.53375,-27.20792 -13.57264,0 -14.92953,2.47134 -15.69016,28.57714 -0.70479,24.18924 2.61471,119.21883 4.73132,135.44641 2.42648,18.60349 2.09436,18.35785 45.25498,33.47244 12.96101,4.53886 31.1243,11.15479 40.36287,14.70208 9.23859,3.54728 32.0546,11.67563 50.70225,18.06299 93.66737,32.08376 92.21377,31.74664 100.75486,23.36755 z m -45.0541,-35.41006 c -8.68588,-1.34984 -69.75124,-19.65613 -123.51039,-37.02617 -26.88753,-8.68759 -39.95655,-13.67135 -42.69541,-16.28151 -3.04879,-2.90552 -4.22405,-6.15185 -5.16427,-14.26464 -1.79719,-15.50769 -1.65488,-104.85105 0.17438,-109.46577 0.85658,-2.1609 3.21781,-4.32388 5.24718,-4.8066 7.55934,-1.79814 140.02792,23.53001 178.64786,34.15766 19.04374,5.24056 18.59928,4.65026 17.28474,22.95639 -2.05539,28.62341 -12.18955,104.90871 -15.60599,117.47478 -1.94109,7.13956 -5.04554,8.70621 -14.3781,7.25586 z m -219.82388,0.9629 37.36115,-30.9083 -4.85923,-4.80861 c -2.67259,-2.64473 -5.53054,-7.05358 -6.35099,-9.79747 -2.17401,-7.27057 -5.0327,-71.73574 -5.40079,-121.79087 -0.42522,-57.8236 -1.302,-56.28596 30.95137,-54.28096 l 17.33982,1.07792 -1.88666,-18.01897 c -1.03767,-9.91044 -2.66424,-18.76477 -3.61461,-19.67631 -0.95035,-0.91152 -16.98075,-2.70278 -35.62311,-3.98056 l -33.8952,-2.32324 -80.43709,26.70187 c -44.24041,14.68603 -81.70853,27.34784 -83.262503,28.13735 -1.553973,0.78951 -2.825401,2.78634 -2.825401,4.4374 0,2.76106 45.852164,147.23992 59.215284,186.58567 3.18191,9.36868 6.89936,18.25997 8.26098,19.75842 3.97041,4.36935 63.17095,32.34996 65.56542,30.98889 1.15524,-0.65666 18.91294,-15.10266 39.46156,-32.10223 z"
       id="path1336"
       style="fill:#2b2bb0" />
    <path
       d="m 363.94924,634.83727 c -27.10099,-7.25214 -44.09012,-22.80818 -43.99064,-40.27983 0.0342,-6.01097 5.45038,-17.42477 10.83099,-22.82486 2.32487,-2.33329 3.91673,-4.47294 3.53748,-4.75476 -2.12731,-1.58086 -56.50082,-19.86332 -57.74091,-19.41472 -0.81806,0.29592 -18.29339,14.47493 -38.83409,31.5089 -20.5407,17.03398 -38.87227,31.63436 -40.73684,32.44528 -2.76969,1.20459 -9.46545,-1.48771 -36.58677,-14.71116 l -33.19664,-16.18557 -3.02395,-8.51699 C 113.89413,543.05483 59.977239,372.6744 59.977239,369.13112 c 0,-3.82593 1.042366,-4.68607 9.283461,-7.66052 13.2307,-4.77535 148.67785,-49.64336 155.07588,-51.37019 5.78539,-1.56149 76.03274,2.70974 78.23153,4.75669 0.67149,0.62512 2.086,10.29254 3.14335,21.48316 l 1.92247,20.34658 5.73646,0.87501 c 3.15507,0.48125 47.36968,5.74588 98.2547,11.69917 50.88502,5.95329 97.58314,11.92909 103.77359,13.27955 11.26047,2.45649 19.18086,7.12545 22.65762,13.35637 3.36165,6.02462 4.52056,21.78847 2.87271,39.0752 -3.44085,36.09588 -19.23119,129.51633 -25.796,152.61685 -9.27523,32.63806 -16.09251,35.83198 -52.14327,24.42925 l -15.95934,-5.04788 -2.6102,3.84517 c -6.06276,8.93129 -14.11319,15.7693 -24.14041,20.50482 -9.96917,4.7081 -11.94014,5.07221 -29.29116,5.41114 -12.43864,0.24298 -21.39827,-0.38467 -27.03939,-1.89422 z m 50.23804,-4.38687 c 4.95488,-2.17572 11.47946,-5.76328 14.49907,-7.97234 5.73947,-4.19883 14.98297,-15.81368 13.62308,-17.11799 -0.43314,-0.41544 -9.43479,-3.80251 -20.00366,-7.5268 l -19.21612,-6.77145 -1.78475,4.07122 c -3.7208,8.48754 -5.13874,8.55422 -25.0717,1.17894 l -18.37796,-6.7999 -0.4786,-7.66986 -0.4786,-7.66986 -8.94232,-2.70363 c -8.58624,-2.59598 -9.07289,-2.59093 -12.22114,0.127 -5.84584,5.04674 -12.56022,17.96698 -12.57627,24.20002 -0.0202,7.85643 3.19844,13.38205 12.24303,21.01811 20.75695,17.52442 56.02878,23.6294 78.78594,13.63654 z m 86.40021,-19.96576 c 6.748,-6.61996 11.63092,-21.84197 18.6667,-58.19141 12.9827,-67.07338 21.44037,-130.14192 19.29368,-143.87215 -1.27159,-8.13312 -6.23678,-15.60377 -12.78857,-19.24185 -2.66093,-1.47755 -10.65031,-3.77943 -17.75418,-5.11528 -18.36549,-3.45354 -222.25636,-27.20792 -233.53375,-27.20792 -13.57264,0 -14.92953,2.47134 -15.69016,28.57714 -0.70479,24.18924 2.61471,119.21883 4.73132,135.44641 2.42648,18.60349 2.09436,18.35785 45.25498,33.47244 12.96101,4.53886 31.1243,11.15479 40.36287,14.70208 9.23859,3.54728 32.0546,11.67563 50.70225,18.06299 93.66737,32.08376 92.21377,31.74664 100.75486,23.36755 z M 440.1955,559.7761 c -45.51473,-11.42588 -137.09668,-38.83047 -146.85118,-43.94311 -3.79205,-1.98754 -6.8434,-4.92172 -7.50801,-7.21971 -2.08933,-7.22428 -1.63998,-96.74846 0.49592,-98.79707 1.06558,-1.02204 4.17558,-1.85825 6.91114,-1.85825 4.25103,0 77.77549,15.73104 94.48039,20.2147 7.74945,2.07999 33.43318,23.89114 49.2281,41.8055 20.13479,22.83659 30.63527,32.66115 33.70188,31.53246 3.28604,-1.20944 6.51255,-11.9987 9.90372,-33.11746 2.5808,-16.07211 4.0372,-21.06762 4.0372,-13.84779 0,13.04211 -12.36679,102.76783 -14.76222,107.10552 -2.099,3.8009 -8.68843,3.38406 -29.63694,-1.87479 z m -204.48599,16.26138 37.36115,-30.9083 -4.85923,-4.80861 c -2.67259,-2.64473 -5.53054,-7.05358 -6.35099,-9.79747 -2.17401,-7.27057 -5.0327,-71.73574 -5.40079,-121.79087 -0.42522,-57.8236 -1.302,-56.28596 30.95137,-54.28096 l 17.33982,1.07792 -1.88666,-18.01897 c -1.03767,-9.91044 -2.66424,-18.76477 -3.61461,-19.67631 -0.95035,-0.91152 -16.98075,-2.70278 -35.62311,-3.98056 l -33.8952,-2.32324 -80.43709,26.70187 c -44.24041,14.68603 -81.70853,27.34784 -83.262503,28.13735 -1.553973,0.78951 -2.825401,2.78634 -2.825401,4.4374 0,2.76106 45.852164,147.23992 59.215284,186.58567 3.18191,9.36868 6.89936,18.25997 8.26098,19.75842 3.97041,4.36935 63.17095,32.34996 65.56542,30.98889 1.15524,-0.65666 18.91294,-15.10266 39.46156,-32.10223 z"
       id="path1334"
       style="fill:#1919a4" />
    <path
       d="m 363.94924,634.83727 c -27.10099,-7.25214 -44.09012,-22.80818 -43.99064,-40.27983 0.0342,-6.01097 5.45038,-17.42477 10.83099,-22.82486 2.32487,-2.33329 3.91673,-4.47294 3.53748,-4.75476 -2.12731,-1.58086 -56.50082,-19.86332 -57.74091,-19.41472 -0.81806,0.29592 -18.29339,14.47493 -38.83409,31.5089 -20.5407,17.03398 -38.87227,31.63436 -40.73684,32.44528 -2.76969,1.20459 -9.46545,-1.48771 -36.58677,-14.71116 l -33.19664,-16.18557 -3.02395,-8.51699 C 113.89413,543.05483 59.977239,372.6744 59.977239,369.13112 c 0,-3.82593 1.042366,-4.68607 9.283461,-7.66052 13.2307,-4.77535 148.67785,-49.64336 155.07588,-51.37019 5.78539,-1.56149 76.03274,2.70974 78.23153,4.75669 0.67149,0.62512 2.086,10.29254 3.14335,21.48316 l 1.92247,20.34658 5.73646,0.87501 c 3.15507,0.48125 47.36968,5.74588 98.2547,11.69917 50.88502,5.95329 97.58314,11.92909 103.77359,13.27955 11.26047,2.45649 19.18086,7.12545 22.65762,13.35637 3.36165,6.02462 4.52056,21.78847 2.87271,39.0752 -3.44085,36.09588 -19.23119,129.51633 -25.796,152.61685 -9.27523,32.63806 -16.09251,35.83198 -52.14327,24.42925 l -15.95934,-5.04788 -2.6102,3.84517 c -6.06276,8.93129 -14.11319,15.7693 -24.14041,20.50482 -9.96917,4.7081 -11.94014,5.07221 -29.29116,5.41114 -12.43864,0.24298 -21.39827,-0.38467 -27.03939,-1.89422 z m 50.23804,-4.38687 c 4.95488,-2.17572 11.47946,-5.76328 14.49907,-7.97234 5.73947,-4.19883 14.98297,-15.81368 13.62308,-17.11799 -0.43314,-0.41544 -9.43479,-3.80251 -20.00366,-7.5268 l -19.21612,-6.77145 -1.78475,4.07122 c -3.7208,8.48754 -5.13874,8.55422 -25.0717,1.17894 l -18.37796,-6.7999 -0.4786,-7.66986 -0.4786,-7.66986 -8.94232,-2.70363 c -8.58624,-2.59598 -9.07289,-2.59093 -12.22114,0.127 -5.84584,5.04674 -12.56022,17.96698 -12.57627,24.20002 -0.0202,7.85643 3.19844,13.38205 12.24303,21.01811 20.75695,17.52442 56.02878,23.6294 78.78594,13.63654 z m 86.40021,-19.96576 c 6.748,-6.61996 11.63092,-21.84197 18.6667,-58.19141 12.9827,-67.07338 21.44037,-130.14192 19.29368,-143.87215 -1.27159,-8.13312 -6.23678,-15.60377 -12.78857,-19.24185 -2.66093,-1.47755 -10.65031,-3.77943 -17.75418,-5.11528 -18.36549,-3.45354 -222.25636,-27.20792 -233.53375,-27.20792 -13.57264,0 -14.92953,2.47134 -15.69016,28.57714 -0.70479,24.18924 2.61471,119.21883 4.73132,135.44641 2.42648,18.60349 2.09436,18.35785 45.25498,33.47244 12.96101,4.53886 31.1243,11.15479 40.36287,14.70208 9.23859,3.54728 32.0546,11.67563 50.70225,18.06299 93.66737,32.08376 92.21377,31.74664 100.75486,23.36755 z m -44.24685,-51.84401 c -48.00503,-10.6343 -150.16916,-39.35891 -163.49538,-45.96857 -7.86793,-3.90241 -8.81503,-9.42759 -8.1904,-47.78082 0.71255,-43.75121 -0.31772,-42.44197 23.77066,-30.2074 9.62066,4.88635 28.10562,13.32903 41.07772,18.76153 42.11393,17.63659 57.08269,28.81909 87.62581,65.46137 10.19464,12.23041 20.32611,23.3623 22.51439,24.73752 7.60277,4.77798 9.7436,0.44655 16.16617,-32.70817 3.17493,-16.38963 3.74342,-18.11644 3.05883,-9.29126 -0.98012,12.63481 -6.80596,52.21179 -8.19783,55.69072 -0.93474,2.33636 -7.12829,2.90043 -14.32997,1.30508 z m 23.78504,-73.2555 c 0,-2.98095 0.33227,-4.20042 0.73837,-2.70996 0.40608,1.49048 0.40608,3.92944 0,5.41991 -0.4061,1.49047 -0.73837,0.271 -0.73837,-2.70995 z m 1.55469,-13.16262 c -0.0329,-2.55509 0.30202,-3.78783 0.74428,-2.73942 0.44225,1.04841 0.46917,3.13895 0.0598,4.64563 -0.40935,1.50668 -0.77119,0.64889 -0.8041,-1.90621 z m -245.97086,103.81497 37.36115,-30.9083 -4.85923,-4.80861 c -2.67259,-2.64473 -5.53054,-7.05358 -6.35099,-9.79747 -2.17401,-7.27057 -5.0327,-71.73574 -5.40079,-121.79087 -0.42522,-57.8236 -1.302,-56.28596 30.95137,-54.28096 l 17.33982,1.07792 -1.88666,-18.01897 c -1.03767,-9.91044 -2.66424,-18.76477 -3.61461,-19.67631 -0.95035,-0.91152 -16.98075,-2.70278 -35.62311,-3.98056 l -33.8952,-2.32324 -80.43709,26.70187 c -44.24041,14.68603 -81.70853,27.34784 -83.262503,28.13735 -1.553973,0.78951 -2.825401,2.78634 -2.825401,4.4374 0,2.76106 45.852164,147.23992 59.215284,186.58567 3.18191,9.36868 6.89936,18.25997 8.26098,19.75842 3.97041,4.36935 63.17095,32.34996 65.56542,30.98889 1.15524,-0.65666 18.91294,-15.10266 39.46156,-32.10223 z"
       id="path1332"
       style="fill:#0c0c95" />
    <path
       d="m 363.94924,634.83727 c -27.10099,-7.25214 -44.09012,-22.80818 -43.99064,-40.27983 0.0342,-6.01097 5.45038,-17.42477 10.83099,-22.82486 2.32487,-2.33329 3.91673,-4.47294 3.53748,-4.75476 -2.12731,-1.58086 -56.50082,-19.86332 -57.74091,-19.41472 -0.81806,0.29592 -18.29339,14.47493 -38.83409,31.5089 -20.5407,17.03398 -38.87227,31.63436 -40.73684,32.44528 -2.76969,1.20459 -9.46545,-1.48771 -36.58677,-14.71116 l -33.19664,-16.18557 -3.02395,-8.51699 C 113.89413,543.05483 59.977239,372.6744 59.977239,369.13112 c 0,-3.82593 1.042366,-4.68607 9.283461,-7.66052 13.2307,-4.77535 148.67785,-49.64336 155.07588,-51.37019 5.78539,-1.56149 76.03274,2.70974 78.23153,4.75669 0.67149,0.62512 2.086,10.29254 3.14335,21.48316 l 1.92247,20.34658 5.73646,0.87501 c 3.15507,0.48125 47.36968,5.74588 98.2547,11.69917 50.88502,5.95329 97.58314,11.92909 103.77359,13.27955 11.26047,2.45649 19.18086,7.12545 22.65762,13.35637 3.36165,6.02462 4.52056,21.78847 2.87271,39.0752 -3.44085,36.09588 -19.23119,129.51633 -25.796,152.61685 -9.27523,32.63806 -16.09251,35.83198 -52.14327,24.42925 l -15.95934,-5.04788 -2.6102,3.84517 c -6.06276,8.93129 -14.11319,15.7693 -24.14041,20.50482 -9.96917,4.7081 -11.94014,5.07221 -29.29116,5.41114 -12.43864,0.24298 -21.39827,-0.38467 -27.03939,-1.89422 z m 50.23804,-4.38687 c 4.95488,-2.17572 11.47946,-5.76328 14.49907,-7.97234 5.73947,-4.19883 14.98297,-15.81368 13.62308,-17.11799 -0.43314,-0.41544 -9.43479,-3.80251 -20.00366,-7.5268 l -19.21612,-6.77145 -1.78475,4.07122 c -3.7208,8.48754 -5.13874,8.55422 -25.0717,1.17894 l -18.37796,-6.7999 -0.4786,-7.66986 -0.4786,-7.66986 -8.94232,-2.70363 c -8.58624,-2.59598 -9.07289,-2.59093 -12.22114,0.127 -5.84584,5.04674 -12.56022,17.96698 -12.57627,24.20002 -0.0202,7.85643 3.19844,13.38205 12.24303,21.01811 20.75695,17.52442 56.02878,23.6294 78.78594,13.63654 z m 86.40021,-19.96576 c 6.748,-6.61996 11.63092,-21.84197 18.6667,-58.19141 12.9827,-67.07338 21.44037,-130.14192 19.29368,-143.87215 -1.27159,-8.13312 -6.23678,-15.60377 -12.78857,-19.24185 -2.66093,-1.47755 -10.65031,-3.77943 -17.75418,-5.11528 -18.36549,-3.45354 -222.25636,-27.20792 -233.53375,-27.20792 -13.57264,0 -14.92953,2.47134 -15.69016,28.57714 -0.70479,24.18924 2.61471,119.21883 4.73132,135.44641 2.42648,18.60349 2.09436,18.35785 45.25498,33.47244 12.96101,4.53886 31.1243,11.15479 40.36287,14.70208 9.23859,3.54728 32.0546,11.67563 50.70225,18.06299 93.66737,32.08376 92.21377,31.74664 100.75486,23.36755 z m -264.87798,-34.44716 37.36115,-30.9083 -4.85923,-4.80861 c -2.67259,-2.64473 -5.53054,-7.05358 -6.35099,-9.79747 -2.17401,-7.27057 -5.0327,-71.73574 -5.40079,-121.79087 -0.42522,-57.8236 -1.302,-56.28596 30.95137,-54.28096 l 17.33982,1.07792 -1.88666,-18.01897 c -1.03767,-9.91044 -2.66424,-18.76477 -3.61461,-19.67631 -0.95035,-0.91152 -16.98075,-2.70278 -35.62311,-3.98056 l -33.8952,-2.32324 -80.43709,26.70187 c -44.24041,14.68603 -81.70853,27.34784 -83.262503,28.13735 -1.553973,0.78951 -2.825401,2.78634 -2.825401,4.4374 0,2.76106 45.852164,147.23992 59.215284,186.58567 3.18191,9.36868 6.89936,18.25997 8.26098,19.75842 3.97041,4.36935 63.17095,32.34996 65.56542,30.98889 1.15524,-0.65666 18.91294,-15.10266 39.46156,-32.10223 z"
       id="path1330"
       style="fill:#030303" />
  </g>
</svg>
